<!--svg width="128" height="128" xmlns="http://www.w3.org/2000/svg"><path d="M54.122 127.892v-28.68H7.513V87.274h46.609v-12.4H7.513v-12.86h38.003L.099 0h22.6l32.556 45.07c3.617 5.144 6.44 9.611 8.487 13.385 1.788-3.05 4.89-7.779 9.301-14.186L103.93 0h24.01L82.385 62.013h38.34v12.862h-46.41v12.4h46.41v11.937h-46.41v28.68H54.123z"/></svg-->
<svg width="430" height="432" preserveAspectRatio="none" xmlns="http://www.w3.org/2000/svg"><path d="M0,198L55,198C54,204 54,210 54,216C54,222 54,228 55,234H16L0,270H61C86,362 171.5,432 270,432C324.5,432 375.5,410.5 414,375.5L414,323.5 C381,367.5 328.5,396 270,396C190,396 121.5,343 98.5,270H342L358,234H91C90,228 90,222 90,216C90,211 90,204 91,198H374 L390,162H98.5C121,90 189,36 270,36C333,36 381,64.5 414,108L430,72.5C390,28 333,0 270,0C171,0 85.5,71 61,162H16Z"/></svg>
